<?xml version="1.0" standalone="no"?>
<!DOCTYPE svg PUBLIC "-//W3C//DTD SVG 20010904//EN"
 "http://www.w3.org/TR/2001/REC-SVG-20010904/DTD/svg10.dtd">
<svg version="1.0" xmlns="http://www.w3.org/2000/svg"
 width="180.000000pt" height="180.000000pt" viewBox="0 0 180.000000 180.000000"
 preserveAspectRatio="xMidYMid meet">

<g transform="translate(0.000000,180.000000) scale(0.100000,-0.100000)"
fill="#000000" stroke="none">
<path d="M976 1375 c-17 -13 -16 -17 28 -68 25 -30 46 -57 46 -61 0 -20 -41 0
-83 41 -39 39 -49 45 -57 33 -14 -22 -14 -23 33 -50 l42 -25 -82 -3 c-73 -2
-83 -5 -83 -21 0 -10 6 -19 13 -18 6 0 56 -1 110 -1 88 -2 98 -4 95 -19 -2
-13 -14 -18 -43 -20 -22 -1 -48 -2 -57 -2 -31 -2 -23 -55 13 -91 28 -28 36
-31 71 -25 39 7 39 6 36 -20 -9 -76 -103 -46 -171 55 -15 22 -18 23 -32 9 -14
-14 -12 -20 26 -63 50 -57 85 -76 139 -76 53 0 90 34 90 83 0 47 -19 60 -73
52 -39 -6 -47 -4 -56 13 -16 30 -16 31 47 34 l57 3 -3 33 c-1 20 3 32 10 32 7
1 52 2 101 3 l87 2 0 -72 c0 -66 -2 -74 -24 -88 -35 -23 -66 -5 -66 36 0 25 6
33 30 42 19 7 30 18 30 30 0 17 -5 19 -32 13 -60 -12 -90 -64 -68 -120 12 -34
64 -58 98 -45 33 13 32 13 32 -26 0 -31 3 -35 25 -35 24 0 25 2 25 74 0 80 11
100 52 94 32 -4 37 -51 9 -89 -26 -35 -26 -36 -1 -49 16 -9 22 -4 45 33 32 55
32 91 0 122 -26 27 -73 33 -93 13 -9 -9 -12 -4 -12 25 l0 37 63 1 c34 1 70 1
80 0 11 -2 17 5 17 18 0 21 -5 21 -204 21 l-205 0 -41 75 c-23 41 -42 75 -43
75 -1 0 -10 -7 -21 -15z"/>
<path d="M540 1353 c-18 -23 -21 -36 -16 -70 l6 -43 -115 0 c-106 0 -115 -1
-115 -19 0 -24 19 -31 81 -31 48 0 49 -1 49 -30 0 -39 -27 -51 -50 -23 -14 17
-19 19 -34 8 -16 -13 -16 -15 3 -52 27 -53 100 -148 113 -148 6 0 16 7 21 17
8 13 4 24 -21 52 -18 20 -32 41 -32 46 0 5 11 20 25 34 17 17 25 36 25 61 0
34 1 35 40 35 38 0 40 -2 40 -29 0 -26 -4 -30 -32 -33 -25 -2 -34 -8 -36 -25
-3 -20 1 -23 32 -23 l36 0 0 -70 c0 -68 1 -70 25 -70 l25 0 0 125 0 125 40 0
c39 0 40 -1 40 -35 0 -31 3 -35 25 -35 22 0 25 4 25 35 0 28 4 35 20 35 15 0
20 7 20 25 0 18 -5 25 -19 25 -13 0 -21 9 -26 31 -4 16 -24 48 -44 70 -33 34
-43 39 -84 39 -38 0 -49 -5 -67 -27z m118 -3 c21 -13 41 -38 55 -70 12 -27 31
-52 42 -55 19 -6 18 -7 -5 -14 -22 -6 -24 -12 -22 -45 3 -29 0 -37 -10 -34 -7
3 -13 19 -13 39 0 34 0 34 -52 37 l-53 3 0 -130 c0 -81 -4 -131 -10 -131 -6 0
-10 30 -10 70 l0 70 -34 0 c-19 0 -38 5 -41 10 -4 6 10 10 34 10 l41 0 0 50 0
50 -60 0 -60 0 0 -50 c0 -45 -3 -52 -30 -69 l-30 -18 35 -46 c34 -44 43 -67
28 -67 -16 1 -113 146 -113 168 0 12 5 11 24 -7 17 -16 31 -21 45 -16 18 5 21
14 21 56 l0 49 -60 0 c-33 0 -60 4 -60 10 0 6 46 10 119 10 l120 0 -14 27
c-25 49 5 113 54 113 14 0 41 -9 59 -20z"/>
<path d="M565 1326 c-14 -22 -15 -28 -1 -60 l15 -36 65 0 c37 0 66 2 66 5 0 3
-9 23 -20 45 -35 69 -95 92 -125 46z m99 -29 c36 -47 33 -57 -16 -57 -47 0
-78 22 -78 55 0 28 8 35 41 35 20 0 35 -10 53 -33z"/>
<path d="M703 1083 c9 -2 23 -2 30 0 6 3 -1 5 -18 5 -16 0 -22 -2 -12 -5z"/>
<path d="M690 1050 c0 -5 11 -10 25 -10 14 0 25 5 25 10 0 6 -11 10 -25 10
-14 0 -25 -4 -25 -10z"/>
<path d="M690 980 c0 -36 3 -40 25 -40 23 0 25 4 25 40 0 36 -2 40 -25 40 -22
0 -25 -4 -25 -40z m40 0 c0 -10 -5 -22 -10 -25 -13 -8 -24 20 -16 41 8 20 26
9 26 -16z"/>
<path d="M378 825 c-39 -22 -71 -80 -71 -129 1 -58 16 -90 58 -122 33 -25 48
-28 127 -32 l89 -5 -3 34 -3 34 -83 5 c-74 4 -85 8 -102 30 -26 33 -25 73 3
105 20 24 29 27 102 28 l80 2 3 33 3 32 -88 0 c-57 -1 -97 -6 -115 -15z m176
-20 c-5 -11 -23 -15 -71 -15 -75 0 -97 -9 -118 -50 -19 -38 -19 -65 2 -101 22
-36 34 -41 116 -48 82 -7 89 -25 11 -29 -68 -4 -105 10 -139 50 -36 42 -41 87
-16 136 28 56 60 71 148 72 60 0 71 -2 67 -15z"/>
<path d="M602 808 l3 -33 65 -3 c96 -3 110 -8 126 -47 25 -61 -16 -115 -88
-115 -27 0 -38 4 -38 15 0 10 -11 15 -35 15 l-35 0 0 -50 0 -50 73 0 c134 0
202 58 194 166 -4 55 -33 103 -75 123 -13 6 -61 11 -108 11 l-85 0 3 -32z"/>
<path d="M945 798 l-45 -45 0 -107 0 -107 33 3 c30 3 32 5 29 36 -3 22 1 34
12 38 20 8 21 60 1 67 -22 9 1 65 35 82 33 17 84 4 100 -25 6 -10 10 -59 10
-109 l0 -91 35 0 35 0 0 95 c0 103 -9 132 -54 174 -20 19 -40 26 -86 29 -60 4
-60 4 -105 -40z"/>
<path d="M1286 821 c-45 -30 -66 -70 -66 -126 0 -103 66 -154 198 -155 l72 0
0 35 0 35 -70 0 c-38 0 -80 5 -94 11 -44 20 -55 101 -18 131 8 7 51 15 96 18
l81 5 3 33 3 32 -88 0 c-69 0 -94 -4 -117 -19z"/>
<path d="M623 723 c9 -2 25 -2 35 0 9 3 1 5 -18 5 -19 0 -27 -2 -17 -5z"/>
<path d="M618 693 c12 -2 30 -2 40 0 9 3 -1 5 -23 4 -22 0 -30 -2 -17 -4z"/>
<path d="M1012 650 c0 -19 2 -27 5 -17 2 9 2 25 0 35 -3 9 -5 1 -5 -18z"/>
<path d="M1042 650 c0 -19 2 -27 5 -17 2 9 2 25 0 35 -3 9 -5 1 -5 -18z"/>
<path d="M1072 650 c0 -19 2 -27 5 -17 2 9 2 25 0 35 -3 9 -5 1 -5 -18z"/>
<path d="M618 663 c12 -2 30 -2 40 0 9 3 -1 5 -23 4 -22 0 -30 -2 -17 -4z"/>
</g>
</svg>
